<?xml version="1.0" encoding="iso-8859-1"?>
<!-- Generator: Adobe Illustrator 18.0.0, SVG Export Plug-In . SVG Version: 6.00 Build 0)  -->
<!DOCTYPE svg PUBLIC "-//W3C//DTD SVG 1.1//EN" "http://www.w3.org/Graphics/SVG/1.1/DTD/svg11.dtd">
<svg version="1.1" id="Capa_1" xmlns="http://www.w3.org/2000/svg" xmlns:xlink="http://www.w3.org/1999/xlink" x="0px" y="0px"
	 viewBox="0 0 201.21 201.21" style="enable-background:new 0 0 201.21 201.21;" xml:space="preserve">
<path d="M166.926,155.377c8.633-10.416,14.741-22.853,17.662-35.965l14.641,3.262c-3.435,15.42-10.612,30.039-20.754,42.275
	L166.926,155.377z M162.129,20.796c-12.603-9.675-27.482-16.296-43.03-19.146l-2.705,14.754c13.219,2.424,25.876,8.057,36.6,16.291
	L162.129,20.796z M4.476,71.48l14.351,4.365C22.735,62.992,29.764,51.047,39.153,41.3L28.35,30.894
	C17.326,42.338,9.07,56.373,4.476,71.48z M33.814,175.861c11.849,10.591,26.185,18.314,41.459,22.332l3.817-14.506
	c-12.992-3.419-25.192-9.992-35.281-19.01L33.814,175.861z M12.953,149.881l13.083-7.338c-6.587-11.744-10.334-25.08-10.835-38.564
	l-14.989,0.559C0.801,120.389,5.207,136.068,12.953,149.881z M61.936,24.369C74.073,18.152,87.179,15,100.888,15V0
	C85.005,0,69.171,3.811,55.097,11.019L61.936,24.369z M200.998,89.399c-1.771-15.729-7.349-31.032-16.13-44.254l-12.495,8.299
	c7.469,11.247,12.213,24.261,13.72,37.635L200.998,89.399z M108.462,201.21c15.8-1.181,31.303-6.177,44.832-14.448l-7.824-12.797
	c-11.506,7.033-24.689,11.282-38.125,12.286L108.462,201.21z"/>
<g>
</g>
<g>
</g>
<g>
</g>
<g>
</g>
<g>
</g>
<g>
</g>
<g>
</g>
<g>
</g>
<g>
</g>
<g>
</g>
<g>
</g>
<g>
</g>
<g>
</g>
<g>
</g>
<g>
</g>
</svg>
