<?xml version="1.0" encoding="iso-8859-1"?>
<!-- Generator: Adobe Illustrator 19.0.0, SVG Export Plug-In . SVG Version: 6.00 Build 0)  -->
<svg version="1.1" id="Capa_1" xmlns="http://www.w3.org/2000/svg" xmlns:xlink="http://www.w3.org/1999/xlink" x="0px" y="0px"
	 viewBox="0 0 512 512" style="enable-background:new 0 0 512 512;" xml:space="preserve">
<g>
	<g>
		<g>
			<path d="M453.072,140.002l24.448-20.656c-7.542-8.861-15.869-17.022-24.88-24.384l-20.304,24.704
				C439.842,125.811,446.782,132.617,453.072,140.002z"/>
			<path d="M424.528,75.202c-9.74-5.814-19.835-11.014-30.224-15.568l-12.8,29.312c9.156,3.984,18.045,8.559,26.608,13.696
				L424.528,75.202z"/>
			<path d="M512,208.002c-0.068-20.623-5.094-40.927-14.656-59.2l-28.464,14.624c7.238,13.748,11.052,29.039,11.12,44.576
				c0,79.408-100.48,144-224,144c-10.944,0-21.648-0.656-32.16-1.6c-0.758-35.232-29.934-63.179-65.166-62.421
				c-20.341,0.438-39.253,10.549-50.914,27.221C60.176,287.906,32,248.722,32,208.002c0-79.408,100.48-144,224-144
				c32.916-0.152,65.664,4.703,97.12,14.4l9.6-30.528C328.16,37.19,292.173,31.838,256,32.002c-141.152,0-256,78.96-256,176
				c0,53.92,35.904,104.768,96.624,137.888c-0.313,2.025-0.522,4.065-0.624,6.112c-0.057,35.284,28.501,63.934,63.786,63.99
				c21.914,0.035,42.317-11.164,54.054-29.67c34.527,11.019,58.016,43.037,58.16,79.28v14.4h32v-14.4
				c-0.055-30.856-12.454-60.406-34.432-82.064C404.4,378.626,512,301.906,512,208.002z M160,384.002c-17.673,0-32-14.327-32-32
				c0-17.673,14.327-32,32-32s32,14.327,32,32C192,369.675,177.673,384.002,160,384.002z"/>
		</g>
	</g>
</g>
<g>
</g>
<g>
</g>
<g>
</g>
<g>
</g>
<g>
</g>
<g>
</g>
<g>
</g>
<g>
</g>
<g>
</g>
<g>
</g>
<g>
</g>
<g>
</g>
<g>
</g>
<g>
</g>
<g>
</g>
</svg>
